<svg width="112" height="104" viewBox="0 0 112 104" fill="none" xmlns="http://www.w3.org/2000/svg">
<path d="M21.3333 101.333C15.4667 101.333 10.4444 99.2444 6.26667 95.0667C2.08889 90.8889 0 85.8667 0 80C0 74.1333 2.08889 69.1111 6.26667 64.9333C10.4444 60.7556 15.4667 58.6667 21.3333 58.6667C25.6 58.6667 29.5333 59.8222 33.1333 62.1333C36.7333 64.4444 39.3333 67.6 40.9333 71.6L42.2667 74.6667H45.4667C49.2 74.6667 52.3333 75.9556 54.8667 78.5333C57.4 81.1111 58.6667 84.2667 58.6667 88C58.6667 91.7333 57.3778 94.8889 54.8 97.4667C52.2222 100.044 49.0667 101.333 45.3333 101.333H21.3333ZM69.2 86.4C68.8444 80.8 66.8222 75.9556 63.1333 71.8667C59.4444 67.7778 54.8 65.2444 49.2 64.2667C46.4444 59.4667 42.7333 55.6667 38.0667 52.8667C33.4 50.0667 28.2667 48.4444 22.6667 48C24.9778 41.5111 28.9333 36.3333 34.5333 32.4667C40.1333 28.6 46.4 26.6667 53.3333 26.6667C62.2222 26.6667 69.7778 29.7778 76 36C82.2222 42.2222 85.3333 49.7778 85.3333 58.6667C85.3333 64.4444 83.9111 69.8 81.0667 74.7333C78.2222 79.6667 74.2667 83.5556 69.2 86.4ZM48 21.3333V0H58.6667V21.3333H48ZM83.4667 36L76 28.5333L90.9333 13.3333L98.5333 20.9333L83.4667 36ZM90.6667 64V53.3333H112V64H90.6667ZM90.9333 104L76 88.8L83.4667 81.3333L98.6667 96.2667L90.9333 104ZM23.2 36L8.13333 20.9333L15.7333 13.3333L30.6667 28.5333L23.2 36Z" fill="#A0D8EF"/>
</svg>
